<mxfile host="app.diagrams.net" agent="Mozilla/5.0 (Windows NT 10.0; Win64; x64) AppleWebKit/537.36 (KHTML, like Gecko) Chrome/137.0.0.0 Safari/537.36" version="27.1.4">
  <diagram name="Page-1" id="13e1069c-82ec-6db2-03f1-153e76fe0fe0">
    <mxGraphModel dx="1783" dy="1029" grid="1" gridSize="10" guides="1" tooltips="1" connect="1" arrows="1" fold="1" page="1" pageScale="1" pageWidth="1100" pageHeight="850" background="none" math="0" shadow="0">
      <root>
        <mxCell id="0" />
        <mxCell id="1" parent="0" />
        <mxCell id="7baba1c4bc27f4b0-4" value="Consultor de videos" style="shape=umlLifeline;perimeter=lifelinePerimeter;whiteSpace=wrap;html=1;container=0;collapsible=0;recursiveResize=0;outlineConnect=0;rounded=1;shadow=0;comic=0;labelBackgroundColor=none;strokeWidth=1;fontFamily=Verdana;fontSize=12;align=center;" parent="1" vertex="1">
          <mxGeometry x="648" y="97" width="100" height="753" as="geometry" />
        </mxCell>
        <mxCell id="7baba1c4bc27f4b0-2" value="Gateway" style="shape=umlLifeline;perimeter=lifelinePerimeter;whiteSpace=wrap;html=1;container=1;collapsible=0;recursiveResize=0;outlineConnect=0;rounded=1;shadow=0;comic=0;labelBackgroundColor=none;strokeWidth=1;fontFamily=Verdana;fontSize=12;align=center;" parent="1" vertex="1">
          <mxGeometry x="318" y="97" width="100" height="753" as="geometry" />
        </mxCell>
        <mxCell id="7baba1c4bc27f4b0-10" value="" style="html=1;points=[];perimeter=orthogonalPerimeter;rounded=0;shadow=0;comic=0;labelBackgroundColor=none;strokeWidth=1;fontFamily=Verdana;fontSize=12;align=center;" parent="7baba1c4bc27f4b0-2" vertex="1">
          <mxGeometry x="45" y="100" width="10" height="630" as="geometry" />
        </mxCell>
        <mxCell id="8Mr_yOStn-VIHXI9vdsu-19" value="" style="html=1;points=[];perimeter=orthogonalPerimeter;rounded=0;shadow=0;comic=0;labelBackgroundColor=none;strokeWidth=1;fontFamily=Verdana;fontSize=12;align=center;" vertex="1" parent="7baba1c4bc27f4b0-2">
          <mxGeometry x="50" y="173" width="10" height="43" as="geometry" />
        </mxCell>
        <mxCell id="8Mr_yOStn-VIHXI9vdsu-20" value="" style="html=1;verticalAlign=bottom;endArrow=block;labelBackgroundColor=none;fontFamily=Verdana;fontSize=12;edgeStyle=elbowEdgeStyle;elbow=horizontal;endFill=1;exitX=0.997;exitY=0.089;exitDx=0;exitDy=0;exitPerimeter=0;entryX=1.081;entryY=0.011;entryDx=0;entryDy=0;entryPerimeter=0;" edge="1" parent="7baba1c4bc27f4b0-2" source="7baba1c4bc27f4b0-10" target="8Mr_yOStn-VIHXI9vdsu-19">
          <mxGeometry x="-0.0413" y="-17" relative="1" as="geometry">
            <mxPoint x="55" y="168" as="sourcePoint" />
            <mxPoint x="61" y="183" as="targetPoint" />
            <mxPoint as="offset" />
            <Array as="points">
              <mxPoint x="89" y="163" />
            </Array>
          </mxGeometry>
        </mxCell>
        <mxCell id="8Mr_yOStn-VIHXI9vdsu-21" value="Enrutar según el&amp;nbsp;&lt;div&gt;tipo&amp;nbsp;&lt;span style=&quot;background-color: light-dark(#ffffff, var(--ge-dark-color, #121212)); color: light-dark(rgb(0, 0, 0), rgb(255, 255, 255));&quot;&gt;de llamada*&lt;/span&gt;&lt;/div&gt;" style="edgeLabel;html=1;align=center;verticalAlign=middle;resizable=0;points=[];" vertex="1" connectable="0" parent="8Mr_yOStn-VIHXI9vdsu-20">
          <mxGeometry x="-0.2738" relative="1" as="geometry">
            <mxPoint x="52" y="-5" as="offset" />
          </mxGeometry>
        </mxCell>
        <mxCell id="7baba1c4bc27f4b0-3" value="API Videos" style="shape=umlLifeline;perimeter=lifelinePerimeter;whiteSpace=wrap;html=1;container=1;collapsible=0;recursiveResize=0;outlineConnect=0;rounded=1;shadow=0;comic=0;labelBackgroundColor=none;strokeWidth=1;fontFamily=Verdana;fontSize=12;align=center;" parent="1" vertex="1">
          <mxGeometry x="478" y="97" width="100" height="753" as="geometry" />
        </mxCell>
        <mxCell id="7baba1c4bc27f4b0-13" value="" style="html=1;points=[];perimeter=orthogonalPerimeter;rounded=0;shadow=0;comic=0;labelBackgroundColor=none;strokeWidth=1;fontFamily=Verdana;fontSize=12;align=center;" parent="7baba1c4bc27f4b0-3" vertex="1">
          <mxGeometry x="45" y="254" width="10" height="456" as="geometry" />
        </mxCell>
        <mxCell id="7baba1c4bc27f4b0-5" value="Persistencia videos fríos" style="shape=umlLifeline;perimeter=lifelinePerimeter;whiteSpace=wrap;html=1;container=1;collapsible=0;recursiveResize=0;outlineConnect=0;rounded=1;shadow=0;comic=0;labelBackgroundColor=none;strokeWidth=1;fontFamily=Verdana;fontSize=12;align=center;" parent="1" vertex="1">
          <mxGeometry x="797" y="97" width="100" height="753" as="geometry" />
        </mxCell>
        <mxCell id="7baba1c4bc27f4b0-19" value="" style="html=1;points=[];perimeter=orthogonalPerimeter;rounded=0;shadow=0;comic=0;labelBackgroundColor=none;strokeWidth=1;fontFamily=Verdana;fontSize=12;align=center;" parent="7baba1c4bc27f4b0-5" vertex="1">
          <mxGeometry x="45" y="414" width="10" height="153" as="geometry" />
        </mxCell>
        <mxCell id="7baba1c4bc27f4b0-6" value="DB datos de videos históricos" style="shape=umlLifeline;perimeter=lifelinePerimeter;whiteSpace=wrap;html=1;container=1;collapsible=0;recursiveResize=0;outlineConnect=0;rounded=1;shadow=0;comic=0;labelBackgroundColor=none;strokeWidth=1;fontFamily=Verdana;fontSize=12;align=center;" parent="1" vertex="1">
          <mxGeometry x="936" y="97" width="110" height="753" as="geometry" />
        </mxCell>
        <mxCell id="8Mr_yOStn-VIHXI9vdsu-38" value="" style="html=1;points=[];perimeter=orthogonalPerimeter;rounded=0;shadow=0;comic=0;labelBackgroundColor=none;strokeWidth=1;fontFamily=Verdana;fontSize=12;align=center;" vertex="1" parent="7baba1c4bc27f4b0-6">
          <mxGeometry x="50" y="444" width="10" height="43" as="geometry" />
        </mxCell>
        <mxCell id="8Mr_yOStn-VIHXI9vdsu-44" value="" style="html=1;verticalAlign=bottom;endArrow=block;labelBackgroundColor=none;fontFamily=Verdana;fontSize=12;elbow=vertical;entryX=-0.061;entryY=-0.009;entryDx=0;entryDy=0;entryPerimeter=0;" edge="1" parent="7baba1c4bc27f4b0-6" target="8Mr_yOStn-VIHXI9vdsu-43">
          <mxGeometry relative="1" as="geometry">
            <mxPoint x="-84" y="511" as="sourcePoint" />
            <mxPoint x="51" y="511" as="targetPoint" />
          </mxGeometry>
        </mxCell>
        <mxCell id="8Mr_yOStn-VIHXI9vdsu-45" value="Id del video" style="edgeLabel;html=1;align=center;verticalAlign=middle;resizable=0;points=[];" vertex="1" connectable="0" parent="8Mr_yOStn-VIHXI9vdsu-44">
          <mxGeometry x="-0.3267" y="-1" relative="1" as="geometry">
            <mxPoint x="-20" y="7" as="offset" />
          </mxGeometry>
        </mxCell>
        <mxCell id="8Mr_yOStn-VIHXI9vdsu-46" value="" style="html=1;verticalAlign=bottom;endArrow=block;labelBackgroundColor=none;fontFamily=Verdana;fontSize=12;elbow=vertical;exitX=-0.057;exitY=0.839;exitDx=0;exitDy=0;exitPerimeter=0;entryX=1.061;entryY=0.441;entryDx=0;entryDy=0;entryPerimeter=0;dashed=1;" edge="1" parent="7baba1c4bc27f4b0-6" source="8Mr_yOStn-VIHXI9vdsu-43">
          <mxGeometry relative="1" as="geometry">
            <mxPoint x="-93" y="561" as="sourcePoint" />
            <mxPoint x="-83" y="548" as="targetPoint" />
          </mxGeometry>
        </mxCell>
        <mxCell id="8Mr_yOStn-VIHXI9vdsu-47" value="video.mp4.zst" style="edgeLabel;html=1;align=center;verticalAlign=middle;resizable=0;points=[];" vertex="1" connectable="0" parent="8Mr_yOStn-VIHXI9vdsu-46">
          <mxGeometry x="-0.3267" y="-1" relative="1" as="geometry">
            <mxPoint x="15" y="8" as="offset" />
          </mxGeometry>
        </mxCell>
        <mxCell id="7baba1c4bc27f4b0-7" value="DB videos históricos" style="shape=umlLifeline;perimeter=lifelinePerimeter;whiteSpace=wrap;html=1;container=1;collapsible=0;recursiveResize=0;outlineConnect=0;rounded=1;shadow=0;comic=0;labelBackgroundColor=none;strokeWidth=1;fontFamily=Verdana;fontSize=12;align=center;" parent="1" vertex="1">
          <mxGeometry x="1077" y="97" width="100" height="753" as="geometry" />
        </mxCell>
        <mxCell id="8Mr_yOStn-VIHXI9vdsu-43" value="" style="html=1;points=[];perimeter=orthogonalPerimeter;rounded=0;shadow=0;comic=0;labelBackgroundColor=none;strokeWidth=1;fontFamily=Verdana;fontSize=12;align=center;" vertex="1" parent="7baba1c4bc27f4b0-7">
          <mxGeometry x="45" y="512" width="10" height="43" as="geometry" />
        </mxCell>
        <mxCell id="7baba1c4bc27f4b0-8" value="App móvil" style="shape=umlLifeline;perimeter=lifelinePerimeter;whiteSpace=wrap;html=1;container=1;collapsible=0;recursiveResize=0;outlineConnect=0;rounded=1;shadow=0;comic=0;labelBackgroundColor=none;strokeWidth=1;fontFamily=Verdana;fontSize=12;align=center;" parent="1" vertex="1">
          <mxGeometry x="135" y="97" width="100" height="753" as="geometry" />
        </mxCell>
        <mxCell id="7baba1c4bc27f4b0-9" value="" style="html=1;points=[];perimeter=orthogonalPerimeter;rounded=0;shadow=0;comic=0;labelBackgroundColor=none;strokeWidth=1;fontFamily=Verdana;fontSize=12;align=center;" parent="7baba1c4bc27f4b0-8" vertex="1">
          <mxGeometry x="45" y="90" width="10" height="650" as="geometry" />
        </mxCell>
        <mxCell id="8Mr_yOStn-VIHXI9vdsu-60" value="" style="html=1;verticalAlign=bottom;endArrow=block;labelBackgroundColor=none;fontFamily=Verdana;fontSize=12;elbow=vertical;dashed=1;" edge="1" parent="7baba1c4bc27f4b0-8">
          <mxGeometry relative="1" as="geometry">
            <mxPoint x="228" y="724" as="sourcePoint" />
            <mxPoint x="56" y="725" as="targetPoint" />
          </mxGeometry>
        </mxCell>
        <mxCell id="8Mr_yOStn-VIHXI9vdsu-61" value="video.mp4" style="edgeLabel;html=1;align=center;verticalAlign=middle;resizable=0;points=[];" vertex="1" connectable="0" parent="8Mr_yOStn-VIHXI9vdsu-60">
          <mxGeometry x="-0.3267" y="-1" relative="1" as="geometry">
            <mxPoint x="-28" y="11" as="offset" />
          </mxGeometry>
        </mxCell>
        <mxCell id="7baba1c4bc27f4b0-17" value="&lt;font style=&quot;font-size: 11px;&quot;&gt;Credenciales y la petición&lt;/font&gt;" style="html=1;verticalAlign=bottom;endArrow=block;labelBackgroundColor=none;fontFamily=Verdana;fontSize=12;elbow=vertical;entryX=-0.09;entryY=0;entryDx=0;entryDy=0;entryPerimeter=0;" parent="1" target="7baba1c4bc27f4b0-16" edge="1">
          <mxGeometry x="-0.0506" y="-16" relative="1" as="geometry">
            <mxPoint x="533" y="358" as="sourcePoint" />
            <mxPoint as="offset" />
          </mxGeometry>
        </mxCell>
        <mxCell id="7baba1c4bc27f4b0-11" value="Pide un video de su&amp;nbsp;&lt;div&gt;edificio de hace 4 meses&lt;/div&gt;" style="html=1;verticalAlign=bottom;endArrow=block;entryX=0;entryY=0;labelBackgroundColor=none;fontFamily=Verdana;fontSize=11;edgeStyle=elbowEdgeStyle;elbow=vertical;" parent="1" source="7baba1c4bc27f4b0-9" target="7baba1c4bc27f4b0-10" edge="1">
          <mxGeometry x="-0.0409" y="-15" relative="1" as="geometry">
            <mxPoint x="255" y="207" as="sourcePoint" />
            <mxPoint as="offset" />
          </mxGeometry>
        </mxCell>
        <mxCell id="7baba1c4bc27f4b0-40" value="Siempre que se validan permisos se usa el token de sesión.&#39;Credenciales&#39; refiere a este token." style="shape=note;whiteSpace=wrap;html=1;size=14;verticalAlign=top;align=left;spacingTop=-6;rounded=0;shadow=0;comic=0;labelBackgroundColor=none;strokeWidth=1;fontFamily=Verdana;fontSize=12" parent="1" vertex="1">
          <mxGeometry x="121.5" width="127" height="82" as="geometry" />
        </mxCell>
        <mxCell id="7baba1c4bc27f4b0-41" value="*Las llamadas pueden ser tipo video, datos, o interacción." style="shape=note;whiteSpace=wrap;html=1;size=14;verticalAlign=top;align=left;spacingTop=-6;rounded=0;shadow=0;comic=0;labelBackgroundColor=none;strokeWidth=1;fontFamily=Verdana;fontSize=12" parent="1" vertex="1">
          <mxGeometry x="316" y="20" width="105" height="62" as="geometry" />
        </mxCell>
        <mxCell id="7baba1c4bc27f4b0-43" value="**Al ser la fecha del video &amp;gt;3 meses, se enruta a videos fríos." style="shape=note;whiteSpace=wrap;html=1;size=14;verticalAlign=top;align=left;spacingTop=-6;rounded=0;shadow=0;comic=0;labelBackgroundColor=none;strokeWidth=1;fontFamily=Verdana;fontSize=12" parent="1" vertex="1">
          <mxGeometry x="652" y="10" width="94" height="72" as="geometry" />
        </mxCell>
        <mxCell id="8Mr_yOStn-VIHXI9vdsu-2" value="Auditoría e historial" style="shape=umlLifeline;perimeter=lifelinePerimeter;whiteSpace=wrap;html=1;container=1;collapsible=0;recursiveResize=0;outlineConnect=0;rounded=1;shadow=0;comic=0;labelBackgroundColor=none;strokeWidth=1;fontFamily=Verdana;fontSize=12;align=center;" vertex="1" parent="1">
          <mxGeometry x="1217" y="97" width="100" height="753" as="geometry" />
        </mxCell>
        <mxCell id="8Mr_yOStn-VIHXI9vdsu-3" value="" style="html=1;points=[];perimeter=orthogonalPerimeter;rounded=0;shadow=0;comic=0;labelBackgroundColor=none;strokeColor=#000000;strokeWidth=1;fillColor=#FFFFFF;fontFamily=Verdana;fontSize=12;fontColor=#000000;align=center;" vertex="1" parent="8Mr_yOStn-VIHXI9vdsu-2">
          <mxGeometry x="45" y="322" width="10" height="98" as="geometry" />
        </mxCell>
        <mxCell id="8Mr_yOStn-VIHXI9vdsu-8" value="Persistencia datos e información general" style="shape=umlLifeline;perimeter=lifelinePerimeter;whiteSpace=wrap;html=1;container=1;collapsible=0;recursiveResize=0;outlineConnect=0;rounded=1;shadow=0;comic=0;labelBackgroundColor=none;strokeWidth=1;fontFamily=Verdana;fontSize=12;align=center;" vertex="1" parent="1">
          <mxGeometry x="1356" y="97" width="130" height="753" as="geometry" />
        </mxCell>
        <mxCell id="8Mr_yOStn-VIHXI9vdsu-66" value="" style="html=1;points=[];perimeter=orthogonalPerimeter;rounded=0;shadow=0;comic=0;labelBackgroundColor=none;strokeColor=#000000;strokeWidth=1;fillColor=#FFFFFF;fontFamily=Verdana;fontSize=12;fontColor=#000000;align=center;" vertex="1" parent="8Mr_yOStn-VIHXI9vdsu-8">
          <mxGeometry x="60" y="333" width="10" height="87" as="geometry" />
        </mxCell>
        <mxCell id="8Mr_yOStn-VIHXI9vdsu-11" value="DB general" style="shape=umlLifeline;perimeter=lifelinePerimeter;whiteSpace=wrap;html=1;container=1;collapsible=0;recursiveResize=0;outlineConnect=0;rounded=1;shadow=0;comic=0;labelBackgroundColor=none;strokeWidth=1;fontFamily=Verdana;fontSize=12;align=center;" vertex="1" parent="1">
          <mxGeometry x="1517" y="97" width="100" height="753" as="geometry" />
        </mxCell>
        <mxCell id="8Mr_yOStn-VIHXI9vdsu-67" value="" style="html=1;points=[];perimeter=orthogonalPerimeter;rounded=0;shadow=0;comic=0;labelBackgroundColor=none;strokeColor=#000000;strokeWidth=1;fillColor=#FFFFFF;fontFamily=Verdana;fontSize=12;fontColor=#000000;align=center;" vertex="1" parent="8Mr_yOStn-VIHXI9vdsu-11">
          <mxGeometry x="45" y="352" width="10" height="37" as="geometry" />
        </mxCell>
        <mxCell id="8Mr_yOStn-VIHXI9vdsu-14" value="" style="html=1;points=[];perimeter=orthogonalPerimeter;rounded=0;shadow=0;comic=0;labelBackgroundColor=none;strokeWidth=1;fontFamily=Verdana;fontSize=12;align=center;" vertex="1" parent="1">
          <mxGeometry x="368" y="212" width="10" height="27" as="geometry" />
        </mxCell>
        <mxCell id="8Mr_yOStn-VIHXI9vdsu-15" value="" style="html=1;verticalAlign=bottom;endArrow=block;labelBackgroundColor=none;fontFamily=Verdana;fontSize=12;edgeStyle=elbowEdgeStyle;elbow=horizontal;entryX=1.067;entryY=0.16;entryDx=0;entryDy=0;entryPerimeter=0;" edge="1" parent="1" target="8Mr_yOStn-VIHXI9vdsu-14">
          <mxGeometry x="-0.0413" y="-17" relative="1" as="geometry">
            <mxPoint x="373" y="200" as="sourcePoint" />
            <mxPoint x="423" y="230" as="targetPoint" />
            <mxPoint as="offset" />
            <Array as="points">
              <mxPoint x="403" y="210" />
            </Array>
          </mxGeometry>
        </mxCell>
        <mxCell id="8Mr_yOStn-VIHXI9vdsu-16" value="Validar permisos" style="edgeLabel;html=1;align=center;verticalAlign=middle;resizable=0;points=[];" vertex="1" connectable="0" parent="8Mr_yOStn-VIHXI9vdsu-15">
          <mxGeometry x="-0.2738" relative="1" as="geometry">
            <mxPoint x="34" y="-10" as="offset" />
          </mxGeometry>
        </mxCell>
        <mxCell id="8Mr_yOStn-VIHXI9vdsu-22" value="" style="html=1;verticalAlign=bottom;endArrow=block;labelBackgroundColor=none;fontFamily=Verdana;fontSize=12;elbow=vertical;entryX=-0.04;entryY=-0.005;entryDx=0;entryDy=0;entryPerimeter=0;" edge="1" parent="1">
          <mxGeometry x="-0.0413" y="-17" relative="1" as="geometry">
            <mxPoint x="373" y="350" as="sourcePoint" />
            <mxPoint x="522.6" y="350.72" as="targetPoint" />
            <mxPoint as="offset" />
          </mxGeometry>
        </mxCell>
        <mxCell id="8Mr_yOStn-VIHXI9vdsu-23" value="Credenciales y la petición" style="edgeLabel;html=1;align=center;verticalAlign=middle;resizable=0;points=[];" vertex="1" connectable="0" parent="8Mr_yOStn-VIHXI9vdsu-22">
          <mxGeometry x="-0.3836" relative="1" as="geometry">
            <mxPoint x="21" y="9" as="offset" />
          </mxGeometry>
        </mxCell>
        <mxCell id="8Mr_yOStn-VIHXI9vdsu-25" value="" style="html=1;verticalAlign=bottom;endArrow=block;labelBackgroundColor=none;fontFamily=Verdana;fontSize=12;edgeStyle=elbowEdgeStyle;elbow=horizontal;entryX=1.067;entryY=0.16;entryDx=0;entryDy=0;entryPerimeter=0;" edge="1" parent="1" target="8Mr_yOStn-VIHXI9vdsu-24">
          <mxGeometry x="-0.0413" y="-17" relative="1" as="geometry">
            <mxPoint x="703" y="370" as="sourcePoint" />
            <mxPoint x="753" y="400" as="targetPoint" />
            <mxPoint as="offset" />
            <Array as="points">
              <mxPoint x="733" y="380" />
            </Array>
          </mxGeometry>
        </mxCell>
        <mxCell id="8Mr_yOStn-VIHXI9vdsu-26" value="Validar permisos" style="edgeLabel;html=1;align=center;verticalAlign=middle;resizable=0;points=[];" vertex="1" connectable="0" parent="8Mr_yOStn-VIHXI9vdsu-25">
          <mxGeometry x="-0.2738" relative="1" as="geometry">
            <mxPoint x="34" y="-10" as="offset" />
          </mxGeometry>
        </mxCell>
        <mxCell id="7baba1c4bc27f4b0-16" value="" style="html=1;points=[];perimeter=orthogonalPerimeter;rounded=0;shadow=0;comic=0;labelBackgroundColor=none;strokeWidth=1;fontFamily=Verdana;fontSize=12;align=center;" parent="1" vertex="1">
          <mxGeometry x="693" y="358" width="10" height="432" as="geometry" />
        </mxCell>
        <mxCell id="8Mr_yOStn-VIHXI9vdsu-24" value="" style="html=1;points=[];perimeter=orthogonalPerimeter;rounded=0;shadow=0;comic=0;labelBackgroundColor=none;strokeWidth=1;fontFamily=Verdana;fontSize=12;align=center;" vertex="1" parent="1">
          <mxGeometry x="698" y="382" width="10" height="27" as="geometry" />
        </mxCell>
        <mxCell id="7baba1c4bc27f4b0-34" value="" style="html=1;points=[];perimeter=orthogonalPerimeter;rounded=0;shadow=0;comic=0;labelBackgroundColor=none;strokeWidth=1;fontFamily=Verdana;fontSize=12;align=center;" parent="1" vertex="1">
          <mxGeometry x="698" y="437" width="10" height="45" as="geometry" />
        </mxCell>
        <mxCell id="8Mr_yOStn-VIHXI9vdsu-30" value="" style="html=1;verticalAlign=bottom;endArrow=block;labelBackgroundColor=none;fontFamily=Verdana;fontSize=12;edgeStyle=elbowEdgeStyle;elbow=horizontal;entryX=1.102;entryY=0.171;entryDx=0;entryDy=0;entryPerimeter=0;endFill=1;" edge="1" parent="1">
          <mxGeometry x="-0.0413" y="-17" relative="1" as="geometry">
            <mxPoint x="703" y="430" as="sourcePoint" />
            <mxPoint x="709" y="445" as="targetPoint" />
            <mxPoint as="offset" />
            <Array as="points">
              <mxPoint x="737" y="440" />
            </Array>
          </mxGeometry>
        </mxCell>
        <mxCell id="8Mr_yOStn-VIHXI9vdsu-31" value="Enrutar según&lt;div&gt;fecha del video&lt;/div&gt;" style="edgeLabel;html=1;align=center;verticalAlign=middle;resizable=0;points=[];" vertex="1" connectable="0" parent="8Mr_yOStn-VIHXI9vdsu-30">
          <mxGeometry x="-0.2738" relative="1" as="geometry">
            <mxPoint x="47" y="11" as="offset" />
          </mxGeometry>
        </mxCell>
        <mxCell id="8Mr_yOStn-VIHXI9vdsu-32" value="" style="html=1;verticalAlign=bottom;endArrow=block;labelBackgroundColor=none;fontFamily=Verdana;fontSize=12;elbow=vertical;entryX=-0.1;entryY=-0.008;entryDx=0;entryDy=0;entryPerimeter=0;" edge="1" parent="1">
          <mxGeometry x="-0.0506" y="-16" relative="1" as="geometry">
            <mxPoint x="703" y="510" as="sourcePoint" />
            <mxPoint x="841" y="510.77599999999984" as="targetPoint" />
            <mxPoint as="offset" />
          </mxGeometry>
        </mxCell>
        <mxCell id="8Mr_yOStn-VIHXI9vdsu-33" value="Fecha, cámara" style="edgeLabel;html=1;align=center;verticalAlign=middle;resizable=0;points=[];" vertex="1" connectable="0" parent="8Mr_yOStn-VIHXI9vdsu-32">
          <mxGeometry x="-0.3267" y="-1" relative="1" as="geometry">
            <mxPoint x="15" y="7" as="offset" />
          </mxGeometry>
        </mxCell>
        <mxCell id="8Mr_yOStn-VIHXI9vdsu-34" value="" style="html=1;verticalAlign=bottom;endArrow=block;labelBackgroundColor=none;fontFamily=Verdana;fontSize=12;edgeStyle=elbowEdgeStyle;elbow=horizontal;endFill=1;exitX=1.167;exitY=0.145;exitDx=0;exitDy=0;exitPerimeter=0;entryX=1.221;entryY=0.203;entryDx=0;entryDy=0;entryPerimeter=0;dashed=1;" edge="1" parent="1" target="7baba1c4bc27f4b0-10">
          <mxGeometry x="-0.0413" y="-17" relative="1" as="geometry">
            <mxPoint x="378" y="305" as="sourcePoint" />
            <mxPoint x="382" y="321" as="targetPoint" />
            <mxPoint as="offset" />
            <Array as="points">
              <mxPoint x="410" y="311" />
            </Array>
          </mxGeometry>
        </mxCell>
        <mxCell id="8Mr_yOStn-VIHXI9vdsu-35" value="Ruta: API Videos" style="edgeLabel;html=1;align=center;verticalAlign=middle;resizable=0;points=[];" vertex="1" connectable="0" parent="8Mr_yOStn-VIHXI9vdsu-34">
          <mxGeometry x="-0.2738" relative="1" as="geometry">
            <mxPoint x="44" y="19" as="offset" />
          </mxGeometry>
        </mxCell>
        <mxCell id="8Mr_yOStn-VIHXI9vdsu-36" value="" style="html=1;verticalAlign=bottom;endArrow=block;labelBackgroundColor=none;fontFamily=Verdana;fontSize=12;edgeStyle=elbowEdgeStyle;elbow=horizontal;endFill=1;exitX=1.036;exitY=0.863;exitDx=0;exitDy=0;exitPerimeter=0;dashed=1;" edge="1" parent="1" source="7baba1c4bc27f4b0-34">
          <mxGeometry x="-0.0413" y="-17" relative="1" as="geometry">
            <mxPoint x="709" y="476" as="sourcePoint" />
            <mxPoint x="704" y="494" as="targetPoint" />
            <mxPoint as="offset" />
            <Array as="points">
              <mxPoint x="741" y="482" />
            </Array>
          </mxGeometry>
        </mxCell>
        <mxCell id="8Mr_yOStn-VIHXI9vdsu-37" value="Ruta: Persistencia&lt;div&gt;videos fríos**&lt;/div&gt;" style="edgeLabel;html=1;align=center;verticalAlign=middle;resizable=0;points=[];" vertex="1" connectable="0" parent="8Mr_yOStn-VIHXI9vdsu-36">
          <mxGeometry x="-0.2738" relative="1" as="geometry">
            <mxPoint x="47" y="10" as="offset" />
          </mxGeometry>
        </mxCell>
        <mxCell id="8Mr_yOStn-VIHXI9vdsu-28" value="&lt;font style=&quot;font-size: 11px;&quot;&gt;Log petición, usuario,&lt;/font&gt;&lt;div&gt;&lt;font style=&quot;font-size: 11px;&quot;&gt;y timestamp actual&lt;/font&gt;&lt;/div&gt;" style="html=1;verticalAlign=bottom;endArrow=open;labelBackgroundColor=none;fontFamily=Verdana;fontSize=12;elbow=vertical;entryX=-0.107;entryY=-0.009;entryDx=0;entryDy=0;entryPerimeter=0;endFill=0;" edge="1" parent="1" target="8Mr_yOStn-VIHXI9vdsu-3">
          <mxGeometry x="-0.2349" y="-15" relative="1" as="geometry">
            <mxPoint x="703" y="419" as="sourcePoint" />
            <mxPoint x="870" y="418" as="targetPoint" />
            <mxPoint as="offset" />
          </mxGeometry>
        </mxCell>
        <mxCell id="8Mr_yOStn-VIHXI9vdsu-39" value="" style="html=1;verticalAlign=bottom;endArrow=block;labelBackgroundColor=none;fontFamily=Verdana;fontSize=12;elbow=vertical;entryX=-0.061;entryY=-0.009;entryDx=0;entryDy=0;entryPerimeter=0;exitX=1.001;exitY=0.193;exitDx=0;exitDy=0;exitPerimeter=0;" edge="1" parent="1" source="7baba1c4bc27f4b0-19" target="8Mr_yOStn-VIHXI9vdsu-38">
          <mxGeometry x="-0.0506" y="-16" relative="1" as="geometry">
            <mxPoint x="852" y="541" as="sourcePoint" />
            <mxPoint x="987" y="540" as="targetPoint" />
            <mxPoint as="offset" />
          </mxGeometry>
        </mxCell>
        <mxCell id="8Mr_yOStn-VIHXI9vdsu-40" value="Fecha, cámara" style="edgeLabel;html=1;align=center;verticalAlign=middle;resizable=0;points=[];" vertex="1" connectable="0" parent="8Mr_yOStn-VIHXI9vdsu-39">
          <mxGeometry x="-0.3267" y="-1" relative="1" as="geometry">
            <mxPoint x="15" y="7" as="offset" />
          </mxGeometry>
        </mxCell>
        <mxCell id="8Mr_yOStn-VIHXI9vdsu-41" value="" style="html=1;verticalAlign=bottom;endArrow=block;labelBackgroundColor=none;fontFamily=Verdana;fontSize=12;elbow=vertical;exitX=-0.057;exitY=0.839;exitDx=0;exitDy=0;exitPerimeter=0;entryX=1.061;entryY=0.441;entryDx=0;entryDy=0;entryPerimeter=0;dashed=1;" edge="1" parent="1" source="8Mr_yOStn-VIHXI9vdsu-38" target="7baba1c4bc27f4b0-19">
          <mxGeometry x="-0.0506" y="-16" relative="1" as="geometry">
            <mxPoint x="843" y="590" as="sourcePoint" />
            <mxPoint x="976" y="590" as="targetPoint" />
            <mxPoint as="offset" />
          </mxGeometry>
        </mxCell>
        <mxCell id="8Mr_yOStn-VIHXI9vdsu-42" value="Id del video" style="edgeLabel;html=1;align=center;verticalAlign=middle;resizable=0;points=[];" vertex="1" connectable="0" parent="8Mr_yOStn-VIHXI9vdsu-41">
          <mxGeometry x="-0.3267" y="-1" relative="1" as="geometry">
            <mxPoint x="-18" y="11" as="offset" />
          </mxGeometry>
        </mxCell>
        <mxCell id="8Mr_yOStn-VIHXI9vdsu-48" value="" style="html=1;verticalAlign=bottom;endArrow=block;labelBackgroundColor=none;fontFamily=Verdana;fontSize=12;elbow=vertical;exitX=-0.013;exitY=0.979;exitDx=0;exitDy=0;exitPerimeter=0;entryX=1.216;entryY=0.702;entryDx=0;entryDy=0;entryPerimeter=0;dashed=1;" edge="1" parent="1" source="7baba1c4bc27f4b0-19" target="7baba1c4bc27f4b0-16">
          <mxGeometry relative="1" as="geometry">
            <mxPoint x="931" y="676.47" as="sourcePoint" />
            <mxPoint x="663" y="676.47" as="targetPoint" />
          </mxGeometry>
        </mxCell>
        <mxCell id="8Mr_yOStn-VIHXI9vdsu-49" value="video.mp4.zst" style="edgeLabel;html=1;align=center;verticalAlign=middle;resizable=0;points=[];" vertex="1" connectable="0" parent="8Mr_yOStn-VIHXI9vdsu-48">
          <mxGeometry x="-0.3267" y="-1" relative="1" as="geometry">
            <mxPoint x="-19" y="10" as="offset" />
          </mxGeometry>
        </mxCell>
        <mxCell id="8Mr_yOStn-VIHXI9vdsu-50" value="" style="html=1;points=[];perimeter=orthogonalPerimeter;rounded=0;shadow=0;comic=0;labelBackgroundColor=none;strokeWidth=1;fontFamily=Verdana;fontSize=12;align=center;" vertex="1" parent="1">
          <mxGeometry x="698" y="687" width="10" height="45" as="geometry" />
        </mxCell>
        <mxCell id="8Mr_yOStn-VIHXI9vdsu-51" value="" style="html=1;verticalAlign=bottom;endArrow=block;labelBackgroundColor=none;fontFamily=Verdana;fontSize=12;edgeStyle=elbowEdgeStyle;elbow=horizontal;entryX=1.102;entryY=0.171;entryDx=0;entryDy=0;entryPerimeter=0;endFill=1;" edge="1" parent="1">
          <mxGeometry x="-0.0413" y="-17" relative="1" as="geometry">
            <mxPoint x="703" y="680" as="sourcePoint" />
            <mxPoint x="709" y="695" as="targetPoint" />
            <mxPoint as="offset" />
            <Array as="points">
              <mxPoint x="737" y="690" />
            </Array>
          </mxGeometry>
        </mxCell>
        <mxCell id="8Mr_yOStn-VIHXI9vdsu-52" value="Desarchivar" style="edgeLabel;html=1;align=center;verticalAlign=middle;resizable=0;points=[];" vertex="1" connectable="0" parent="8Mr_yOStn-VIHXI9vdsu-51">
          <mxGeometry x="-0.2738" relative="1" as="geometry">
            <mxPoint x="38" y="15" as="offset" />
          </mxGeometry>
        </mxCell>
        <mxCell id="8Mr_yOStn-VIHXI9vdsu-53" value="" style="html=1;verticalAlign=bottom;endArrow=block;labelBackgroundColor=none;fontFamily=Verdana;fontSize=12;edgeStyle=elbowEdgeStyle;elbow=horizontal;endFill=1;exitX=1.036;exitY=0.863;exitDx=0;exitDy=0;exitPerimeter=0;dashed=1;" edge="1" parent="1" source="8Mr_yOStn-VIHXI9vdsu-50">
          <mxGeometry x="-0.0413" y="-17" relative="1" as="geometry">
            <mxPoint x="709" y="726" as="sourcePoint" />
            <mxPoint x="704" y="744" as="targetPoint" />
            <mxPoint as="offset" />
            <Array as="points">
              <mxPoint x="741" y="732" />
            </Array>
          </mxGeometry>
        </mxCell>
        <mxCell id="8Mr_yOStn-VIHXI9vdsu-54" value="video.mp4" style="edgeLabel;html=1;align=center;verticalAlign=middle;resizable=0;points=[];" vertex="1" connectable="0" parent="8Mr_yOStn-VIHXI9vdsu-53">
          <mxGeometry x="-0.2738" relative="1" as="geometry">
            <mxPoint x="30" y="11" as="offset" />
          </mxGeometry>
        </mxCell>
        <mxCell id="8Mr_yOStn-VIHXI9vdsu-56" value="" style="html=1;verticalAlign=bottom;endArrow=block;labelBackgroundColor=none;fontFamily=Verdana;fontSize=12;elbow=vertical;dashed=1;" edge="1" parent="1">
          <mxGeometry relative="1" as="geometry">
            <mxPoint x="693" y="784" as="sourcePoint" />
            <mxPoint x="534" y="785" as="targetPoint" />
          </mxGeometry>
        </mxCell>
        <mxCell id="8Mr_yOStn-VIHXI9vdsu-57" value="video.mp4" style="edgeLabel;html=1;align=center;verticalAlign=middle;resizable=0;points=[];" vertex="1" connectable="0" parent="8Mr_yOStn-VIHXI9vdsu-56">
          <mxGeometry x="-0.3267" y="-1" relative="1" as="geometry">
            <mxPoint x="-28" y="11" as="offset" />
          </mxGeometry>
        </mxCell>
        <mxCell id="8Mr_yOStn-VIHXI9vdsu-58" value="" style="html=1;verticalAlign=bottom;endArrow=block;labelBackgroundColor=none;fontFamily=Verdana;fontSize=12;elbow=vertical;dashed=1;" edge="1" parent="1">
          <mxGeometry relative="1" as="geometry">
            <mxPoint x="522" y="800" as="sourcePoint" />
            <mxPoint x="373" y="801" as="targetPoint" />
          </mxGeometry>
        </mxCell>
        <mxCell id="8Mr_yOStn-VIHXI9vdsu-59" value="video.mp4" style="edgeLabel;html=1;align=center;verticalAlign=middle;resizable=0;points=[];" vertex="1" connectable="0" parent="8Mr_yOStn-VIHXI9vdsu-58">
          <mxGeometry x="-0.3267" y="-1" relative="1" as="geometry">
            <mxPoint x="-28" y="11" as="offset" />
          </mxGeometry>
        </mxCell>
        <mxCell id="8Mr_yOStn-VIHXI9vdsu-62" value="" style="html=1;verticalAlign=bottom;endArrow=block;labelBackgroundColor=none;fontFamily=Verdana;fontSize=12;elbow=vertical;exitX=1.001;exitY=0.193;exitDx=0;exitDy=0;exitPerimeter=0;" edge="1" parent="1">
          <mxGeometry x="-0.0506" y="-16" relative="1" as="geometry">
            <mxPoint x="1272" y="431" as="sourcePoint" />
            <mxPoint x="1415" y="431" as="targetPoint" />
            <mxPoint as="offset" />
          </mxGeometry>
        </mxCell>
        <mxCell id="8Mr_yOStn-VIHXI9vdsu-63" value="Log" style="edgeLabel;html=1;align=center;verticalAlign=middle;resizable=0;points=[];" vertex="1" connectable="0" parent="8Mr_yOStn-VIHXI9vdsu-62">
          <mxGeometry x="-0.3267" y="-1" relative="1" as="geometry">
            <mxPoint x="15" y="7" as="offset" />
          </mxGeometry>
        </mxCell>
        <mxCell id="8Mr_yOStn-VIHXI9vdsu-64" value="" style="html=1;verticalAlign=bottom;endArrow=block;labelBackgroundColor=none;fontFamily=Verdana;fontSize=12;elbow=vertical;dashed=1;" edge="1" parent="1">
          <mxGeometry x="-0.0506" y="-16" relative="1" as="geometry">
            <mxPoint x="1415" y="512" as="sourcePoint" />
            <mxPoint x="1273" y="512" as="targetPoint" />
            <mxPoint as="offset" />
          </mxGeometry>
        </mxCell>
        <mxCell id="8Mr_yOStn-VIHXI9vdsu-65" value="Log_Ok" style="edgeLabel;html=1;align=center;verticalAlign=middle;resizable=0;points=[];" vertex="1" connectable="0" parent="8Mr_yOStn-VIHXI9vdsu-64">
          <mxGeometry x="-0.3267" y="-1" relative="1" as="geometry">
            <mxPoint x="-18" y="11" as="offset" />
          </mxGeometry>
        </mxCell>
        <mxCell id="8Mr_yOStn-VIHXI9vdsu-68" value="" style="html=1;verticalAlign=bottom;endArrow=block;labelBackgroundColor=none;fontFamily=Verdana;fontSize=12;elbow=vertical;exitX=1.001;exitY=0.193;exitDx=0;exitDy=0;exitPerimeter=0;entryX=-0.112;entryY=-0.008;entryDx=0;entryDy=0;entryPerimeter=0;" edge="1" parent="1" target="8Mr_yOStn-VIHXI9vdsu-67">
          <mxGeometry x="-0.0506" y="-16" relative="1" as="geometry">
            <mxPoint x="1426" y="449" as="sourcePoint" />
            <mxPoint x="1569" y="449" as="targetPoint" />
            <mxPoint as="offset" />
          </mxGeometry>
        </mxCell>
        <mxCell id="8Mr_yOStn-VIHXI9vdsu-69" value="Log" style="edgeLabel;html=1;align=center;verticalAlign=middle;resizable=0;points=[];" vertex="1" connectable="0" parent="8Mr_yOStn-VIHXI9vdsu-68">
          <mxGeometry x="-0.3267" y="-1" relative="1" as="geometry">
            <mxPoint x="15" y="7" as="offset" />
          </mxGeometry>
        </mxCell>
        <mxCell id="8Mr_yOStn-VIHXI9vdsu-70" value="" style="html=1;verticalAlign=bottom;endArrow=block;labelBackgroundColor=none;fontFamily=Verdana;fontSize=12;elbow=vertical;dashed=1;" edge="1" parent="1">
          <mxGeometry x="-0.0506" y="-16" relative="1" as="geometry">
            <mxPoint x="1561" y="482" as="sourcePoint" />
            <mxPoint x="1427" y="482" as="targetPoint" />
            <mxPoint as="offset" />
          </mxGeometry>
        </mxCell>
        <mxCell id="8Mr_yOStn-VIHXI9vdsu-71" value="Log_Ok" style="edgeLabel;html=1;align=center;verticalAlign=middle;resizable=0;points=[];" vertex="1" connectable="0" parent="8Mr_yOStn-VIHXI9vdsu-70">
          <mxGeometry x="-0.3267" y="-1" relative="1" as="geometry">
            <mxPoint x="-18" y="11" as="offset" />
          </mxGeometry>
        </mxCell>
        <mxCell id="8Mr_yOStn-VIHXI9vdsu-72" value="Secuencia - petición de video histórico" style="rounded=0;whiteSpace=wrap;html=1;fillColor=#fff2cc;strokeColor=#d6b656;" vertex="1" parent="1">
          <mxGeometry x="2" y="22" width="98" height="48" as="geometry" />
        </mxCell>
      </root>
    </mxGraphModel>
  </diagram>
</mxfile>
